<?xml version='1.0' encoding='UTF-8' standalone='no'?>
<svg baseProfile="tiny" height="209.973mm" viewBox="0 0 3507 2480" xmlns="http://www.w3.org/2000/svg" version="1.2" width="296.926mm" xmlns:xlink="http://www.w3.org/1999/xlink" xmlns:cc="http://creativecommons.org/ns#">
 <defs/>
 <g stroke-linejoin="bevel" fill-rule="evenodd" stroke-width="1" fill="none" stroke="black" stroke-linecap="square">
  <g font-style="normal" stroke-linejoin="bevel" transform="matrix(1,0,0,1,0,0)" font-weight="400" stroke-opacity="1" stroke-width="1" font-size="34.375" fill="none" font-family="MS Shell Dlg 2" stroke="#000000" stroke-linecap="square"/>
  <g font-style="normal" stroke-linejoin="bevel" transform="matrix(1,0,0,1,0,0)" font-weight="400" stroke-opacity="1" stroke-width="1" font-size="34.375" fill="none" font-family="MS Shell Dlg 2" stroke="#000000" stroke-linecap="square"/>
  <g font-style="normal" stroke-linejoin="bevel" transform="matrix(11.8081,0,0,11.8081,0,0)" font-weight="400" stroke-opacity="1" stroke-width="1" font-size="34.375" fill="none" font-family="MS Shell Dlg 2" stroke="#000000" stroke-linecap="square"/>
  <g font-style="normal" stroke-linejoin="bevel" transform="matrix(0.999751,0,0,0.999751,0,0)" font-weight="400" stroke-opacity="1" stroke-width="1" font-size="34.375" fill="none" font-family="MS Shell Dlg 2" stroke="#000000" stroke-linecap="square"/>
  <g font-style="normal" transform="matrix(0.999751,0,0,0.999751,0,0)" font-weight="400" fill-opacity="1" font-size="34.375" fill="#ffffff" font-family="MS Shell Dlg 2" stroke="none">
   <path fill-rule="evenodd" vector-effect="none" d="M-2,-2 L3510,-2 L3510,2483 L-2,2483 L-2,-2"/>
  </g>
  <g font-style="normal" stroke-linejoin="bevel" transform="matrix(0.999751,0,0,0.999751,0,0)" font-weight="400" stroke-opacity="1" stroke-width="1" font-size="34.375" fill="none" font-family="MS Shell Dlg 2" stroke="#000000" stroke-linecap="square"/>
  <g font-style="normal" stroke-linejoin="bevel" transform="matrix(11.8081,0,0,11.8081,0,0)" font-weight="400" stroke-opacity="1" stroke-width="1" font-size="34.375" fill="none" font-family="MS Shell Dlg 2" stroke="#000000" stroke-linecap="square"/>
  <g font-style="normal" stroke-linejoin="bevel" transform="matrix(11.8081,0,0,11.8081,0,0)" font-weight="400" stroke-opacity="1" stroke-width="1" font-size="34.375" fill="none" font-family="MS Shell Dlg 2" stroke="#000000" stroke-linecap="square"/>
  <g font-style="normal" stroke-linejoin="bevel" transform="matrix(11.8081,0,0,11.8081,0,0)" font-weight="400" stroke-opacity="1" stroke-width="1" font-size="34.375" fill="none" font-family="MS Shell Dlg 2" stroke="#000000" stroke-linecap="square"/>
  <g font-style="normal" stroke-linejoin="bevel" transform="matrix(11.8081,0,0,11.8081,0,0)" font-weight="400" stroke-opacity="1" stroke-width="1" font-size="34.375" fill="none" font-family="MS Shell Dlg 2" stroke="#000000" stroke-linecap="square"/>
  <g font-style="normal" stroke-linejoin="bevel" transform="matrix(11.8081,0,0,11.8081,-220.508,-80.6334)" font-weight="400" stroke-opacity="1" stroke-width="1" font-size="34.375" fill="none" font-family="MS Shell Dlg 2" stroke="#000000" stroke-linecap="square"/>
  <g font-style="normal" transform="matrix(11.8081,0,0,11.8081,-220.508,-80.6334)" font-weight="400" fill-opacity="1" font-size="34.375" fill="#ffffff" font-family="MS Shell Dlg 2" stroke="none">
   <path fill-rule="evenodd" vector-effect="none" d="M0,0 L352.465,0 L352.465,223.657 L0,223.657 L0,0"/>
  </g>
  <g font-style="normal" stroke-linejoin="bevel" transform="matrix(11.8081,0,0,11.8081,-220.508,-80.6334)" font-weight="400" stroke-opacity="1" stroke-width="1" font-size="34.375" fill="none" font-family="MS Shell Dlg 2" stroke="#000000" stroke-linecap="square"/>
  <g font-style="normal" stroke-linejoin="bevel" transform="matrix(11.8081,0,0,11.8081,-220.508,-80.6334)" font-weight="400" stroke-opacity="1" stroke-width="1" font-size="34.375" fill="none" font-family="MS Shell Dlg 2" stroke="#000000" stroke-linecap="square"/>
  <g font-style="normal" transform="matrix(0.999751,0,0,0.999751,-220.508,-80.6334)" font-weight="400" fill-opacity="0" font-size="34.375" fill="#000000" font-family="MS Shell Dlg 2" stroke="none">
   <rect height="2642" width="4163" y="0" x="0"/>
  </g>
  <g font-style="normal" stroke-linejoin="bevel" transform="matrix(0.999751,0,0,0.999751,-220.508,-80.6334)" font-weight="400" stroke-opacity="1" stroke-width="1" font-size="34.375" fill="none" font-family="MS Shell Dlg 2" stroke="#000000" stroke-linecap="square"/>
  <g font-style="normal" stroke-linejoin="bevel" transform="matrix(0.999751,0,0,0.999751,-220.508,-80.6334)" font-weight="400" stroke-opacity="1" stroke-width="3.07087" font-size="34.375" fill="none" font-family="MS Shell Dlg 2" stroke="#ff9e17" stroke-linecap="square">
   <path fill-rule="evenodd" vector-effect="none" d="M2496.4,870.773 L2544.21,351.109"/>
   <path fill-rule="evenodd" vector-effect="none" d="M1547.34,1306.73 L1610.54,1261.62 L1675.24,1218.7 L1741.38,1178.02 L1808.87,1139.64 L1877.64,1103.58 L1947.6,1069.9 L2018.67,1038.64 L2090.78,1009.83 L2163.82,983.513 L2237.73,959.709 L2312.41,938.451 L2387.77,919.763 L2463.73,903.667 L2463.52,902.746 L2463.35,901.817 L2463.2,900.883 L2463.09,899.945 L2463.02,899.004 L2462.97,898.06 L2462.96,897.115 L2462.98,896.171 L2463.03,895.227 L2463.12,894.287 L2463.24,893.349 L2463.39,892.417 L2463.57,891.49 L2463.79,890.571 L2464.04,889.659 L2464.32,888.756 L2464.63,887.864 L2464.97,886.983 L2465.34,886.114 L2465.74,885.259 L2466.17,884.418 L2466.63,883.593 L2467.12,882.784 L2467.64,881.993 L2468.18,881.22 L2468.75,880.467 L2469.35,879.733 L2469.97,879.021 L2470.61,878.331 L2471.28,877.663 L2471.97,877.02 L2472.69,876.4 L2473.42,875.806 L2474.17,875.238 L2474.95,874.696 L2475.74,874.181 L2476.55,873.694 L2477.38,873.236 L2478.22,872.807 L2479.07,872.407 L2479.94,872.037 L2480.82,871.697 L2481.72,871.389 L2482.62,871.111 L2483.53,870.865 L2484.45,870.651 L2485.38,870.469 L2486.31,870.319 L2487.25,870.202 L2488.19,870.117 L2489.13,870.065 L2490.08,870.046 L2491.02,870.06 L2491.97,870.107 L2492.91,870.186 L2493.85,870.298 L2494.78,870.442 L2495.71,870.619 L2496.63,870.828 L2497.54,871.069 L2498.45,871.341 L2499.34,871.644 L2500.23,871.979 L2501.1,872.344 L2501.96,872.739 L2502.8,873.164 L2503.63,873.617 L2504.44,874.099 L2505.24,874.609 L2506.01,875.147 L2506.77,875.711 L2507.51,876.301 L2508.23,876.916 L2508.92,877.556 L2509.59,878.22 L2510.24,878.906 L2510.87,879.615 L2511.47,880.345 L2512.04,881.095 L2512.59,881.865 L2513.11,882.653 L2513.6,883.459 L2514.07,884.282 L2514.5,885.12 L2514.91,885.973 L2515.29,886.839 L2515.63,887.718 L2515.95,888.609 L2516.23,889.51 L2516.48,890.42 L2516.71,891.339 L2516.89,892.264 L2517.05,893.196 L2517.18,894.132 L2517.27,895.073 L2517.33,896.016 L2517.35,896.96 L2517.35,897.905 L2517.31,898.849 L2517.23,899.791 L2517.13,900.73 L2516.99,901.664 L2516.82,902.594 L2516.62,903.517 L2516.39,904.432 L2516.12,905.339 L2515.82,906.235 L2515.5,907.121 L2515.14,907.996 L2514.75,908.857 L2514.33,909.704 L2513.88,910.536 L2513.41,911.352 L2512.9,912.151 L2512.37,912.932 L2511.81,913.694 L2511.23,914.437 L2510.62,915.158 L2509.99,915.858 L2509.33,916.535 L2508.65,917.19 L2507.94,917.82 L2507.22,918.425 L2506.47,919.005 L2505.7,919.558 L2504.54,920.345 L2503.34,921.094 L2502.12,921.803 L2500.88,922.471 L2499.62,923.099 L2498.34,923.685 L2497.04,924.229 L2495.72,924.73 L2494.39,925.188 L2493.04,925.602 L2491.68,925.971 L2490.31,926.296 L2488.93,926.576"/>
   <path fill-rule="evenodd" vector-effect="none" d="M2795.89,891.214 L2718,896.149 L2640.32,903.785 L2562.96,914.113 L2486,927.121 L2409.54,942.792 L2333.68,961.108 L2258.49,982.047 L2184.07,1005.58 L2110.52,1031.69 L2037.92,1060.33 L1966.35,1091.48 L1895.91,1125.09 L1826.68,1161.13 L1758.74,1199.55 L1692.18,1240.3 L1627.07,1283.34 L1563.49,1328.61 L1065.59,1695.45 L1058.62,1700.76 L1051.82,1706.28 L1045.19,1712 L1038.74,1717.94 L1032.49,1724.07 L1026.43,1730.39 L586.402,2203.84 L579.366,2211.16 L572.085,2218.24 L564.569,2225.06 L556.825,2231.62 L548.863,2237.92 L540.691,2243.95 L532.32,2249.69 L523.759,2255.15 L515.018,2260.31 L506.107,2265.17 L497.035,2269.73 L487.815,2273.98 L478.455,2277.91 L450.88,2288.95"/>
   <path fill-rule="evenodd" vector-effect="none" d="M2490.16,897.243 L2470.65,916.195 L2394.8,932.181 L2319.55,950.757 L2244.97,971.901 L2171.17,995.589 L2098.22,1021.79 L2026.21,1050.48 L1955.22,1081.62 L1885.34,1115.17 L1816.66,1151.1 L1749.25,1189.36 L1683.18,1229.91 L1618.55,1272.69 L1555.42,1317.67 L1057.52,1684.5 L1050.21,1690.07 L1043.08,1695.85 L1036.14,1701.86 L1029.38,1708.08 L1022.82,1714.5 L1016.47,1721.13 L576.442,2194.59 L569.725,2201.57 L562.775,2208.32 L555.6,2214.84 L548.208,2221.1 L540.608,2227.12 L532.808,2232.87 L524.818,2238.35 L516.646,2243.56 L508.302,2248.49 L499.796,2253.13 L491.137,2257.48 L482.335,2261.54 L473.401,2265.29 L445.823,2276.33"/>
   <path fill-rule="evenodd" vector-effect="none" d="M1459.21,681.433 L1674.45,1219.21"/>
   <path fill-rule="evenodd" vector-effect="none" d="M1605.96,622.468 L1812.22,1137.81"/>
   <path fill-rule="evenodd" vector-effect="none" d="M1663.75,364.449 L1946.35,1070.48"/>
   <path fill-rule="evenodd" vector-effect="none" d="M1848.71,338.606 L2113.91,1001.19"/>
   <path fill-rule="evenodd" vector-effect="none" d="M2091.44,430.283 L2296.56,942.733"/>
   <path fill-rule="evenodd" vector-effect="none" d="M2240.44,371.935 L2454.03,905.571"/>
   <path fill-rule="evenodd" vector-effect="none" d="M1433.66,691.698 L1641.74,608.091 L1668.1,540.425 L1680.96,504.321 L1686.87,479.323 L1670.92,441.657 L1655.03,411.229 L1652.42,392.49 L1657.58,372.498 L1670.75,355.327 L1699.69,328.418 L1721.95,320.811 L1753.14,316 L1767.01,321.684 L1784.54,336.307 L1812.3,342.87 L1851.13,338.323 L1888.69,339.26 L1918.77,358.187 L1912.71,374.138 L1916.24,392.246 L1924.86,403.733 L2008.97,452.954 L2024.81,456.31 L2064.33,440.908 L2150.56,407.12 L2360.17,325.067 L2394.15,412.071 L2575.41,338.436 L2634.51,483.568 L2690.68,633.173 L3184.08,1843.32 L3168.73,1850.54 L1955.33,2326.07 L1561.26,1341.52 L1070.96,1702.75 L1064.22,1707.88 L1057.64,1713.22 L1051.22,1718.76 L1044.99,1724.51 L1038.93,1730.44 L1033.07,1736.56 L593.043,2210.01 L585.794,2217.55 L578.292,2224.84 L570.548,2231.87 L562.57,2238.63 L554.367,2245.12 L545.948,2251.33 L537.324,2257.25 L528.503,2262.87 L519.498,2268.19 L510.316,2273.2 L500.971,2277.89 L491.471,2282.27 L481.828,2286.32 L454.248,2297.36 L440.767,2263.71 L468.347,2252.66 L476.856,2249.09 L485.238,2245.23 L493.485,2241.08 L501.586,2236.66 L509.532,2231.97 L517.315,2227.01 L524.925,2221.79 L532.354,2216.31 L539.592,2210.58 L546.632,2204.62 L553.465,2198.41 L560.084,2191.98 L566.481,2185.33 L1006.5,1711.87 L1013.15,1704.94 L1020.02,1698.22 L1027.08,1691.71 L1034.35,1685.43 L1041.81,1679.37 L1049.45,1673.56 L1547.34,1306.73 L1319.56,737.651 L1373.74,715.869 L1433.66,691.698"/>
   <path fill-rule="evenodd" vector-effect="none" d="M468.347,2252.66 L440.767,2263.71"/>
   <path fill-rule="evenodd" vector-effect="none" d="M476.856,2249.09 L468.347,2252.66"/>
   <path fill-rule="evenodd" vector-effect="none" d="M485.238,2245.23 L476.856,2249.09"/>
   <path fill-rule="evenodd" vector-effect="none" d="M493.485,2241.08 L485.238,2245.23"/>
   <path fill-rule="evenodd" vector-effect="none" d="M501.586,2236.66 L493.485,2241.08"/>
   <path fill-rule="evenodd" vector-effect="none" d="M509.532,2231.97 L501.586,2236.66"/>
   <path fill-rule="evenodd" vector-effect="none" d="M517.315,2227.01 L509.532,2231.97"/>
   <path fill-rule="evenodd" vector-effect="none" d="M524.925,2221.79 L517.315,2227.01"/>
   <path fill-rule="evenodd" vector-effect="none" d="M532.354,2216.31 L524.925,2221.79"/>
   <path fill-rule="evenodd" vector-effect="none" d="M539.592,2210.58 L532.354,2216.31"/>
   <path fill-rule="evenodd" vector-effect="none" d="M546.632,2204.62 L539.592,2210.58"/>
   <path fill-rule="evenodd" vector-effect="none" d="M553.465,2198.41 L546.632,2204.62"/>
   <path fill-rule="evenodd" vector-effect="none" d="M560.084,2191.98 L553.465,2198.41"/>
   <path fill-rule="evenodd" vector-effect="none" d="M566.481,2185.33 L560.084,2191.98"/>
   <path fill-rule="evenodd" vector-effect="none" d="M838.966,1892.14 L566.481,2185.33"/>
   <path fill-rule="evenodd" vector-effect="none" d="M999.448,1719.47 L838.966,1892.14"/>
   <path fill-rule="evenodd" vector-effect="none" d="M1006.5,1711.87 L999.448,1719.47"/>
   <path fill-rule="evenodd" vector-effect="none" d="M1013.15,1704.94 L1006.5,1711.87"/>
   <path fill-rule="evenodd" vector-effect="none" d="M1020.02,1698.22 L1013.15,1704.94"/>
   <path fill-rule="evenodd" vector-effect="none" d="M1027.08,1691.71 L1020.02,1698.22"/>
   <path fill-rule="evenodd" vector-effect="none" d="M1034.35,1685.43 L1027.08,1691.71"/>
   <path fill-rule="evenodd" vector-effect="none" d="M1041.81,1679.37 L1034.35,1685.43"/>
   <path fill-rule="evenodd" vector-effect="none" d="M1049.45,1673.56 L1041.81,1679.37"/>
   <path fill-rule="evenodd" vector-effect="none" d="M1165.76,1587.87 L1049.45,1673.56"/>
   <path fill-rule="evenodd" vector-effect="none" d="M1282.85,1501.6 L1165.76,1587.87"/>
   <path fill-rule="evenodd" vector-effect="none" d="M1407.09,1410.07 L1282.85,1501.6"/>
   <path fill-rule="evenodd" vector-effect="none" d="M1547.34,1306.73 L1407.09,1410.07"/>
  </g>
  <g font-style="normal" stroke-linejoin="bevel" transform="matrix(0.999751,0,0,0.999751,-220.508,-80.6334)" font-weight="400" stroke-opacity="1" stroke-width="1" font-size="34.375" fill="none" font-family="MS Shell Dlg 2" stroke="#000000" stroke-linecap="square"/>
  <g font-style="normal" stroke-linejoin="bevel" transform="matrix(11.8081,0,0,11.8081,-220.508,-80.6334)" font-weight="400" stroke-opacity="1" stroke-width="1" font-size="34.375" fill="none" font-family="MS Shell Dlg 2" stroke="#000000" stroke-linecap="square"/>
  <g font-style="normal" stroke-linejoin="bevel" transform="matrix(11.8081,0,0,11.8081,-220.508,-80.6334)" font-weight="400" stroke-opacity="1" stroke-width="1" font-size="34.375" fill="none" font-family="MS Shell Dlg 2" stroke="#000000" stroke-linecap="square"/>
  <g font-style="normal" stroke-linejoin="bevel" transform="matrix(11.8081,0,0,11.8081,-220.508,-80.6334)" font-weight="400" stroke-opacity="1" stroke-width="1" font-size="34.375" fill="none" font-family="MS Shell Dlg 2" stroke="#000000" stroke-linecap="square"/>
  <g font-style="normal" stroke-linejoin="bevel" transform="matrix(1,0,0,1,0,0)" font-weight="400" stroke-opacity="1" stroke-width="1" font-size="34.375" fill="none" font-family="MS Shell Dlg 2" stroke="#000000" stroke-linecap="square"/>
  <g font-style="normal" stroke-linejoin="bevel" transform="matrix(11.8081,0,0,11.8081,-220.508,-80.6334)" font-weight="400" stroke-opacity="1" stroke-width="1" font-size="34.375" fill="none" font-family="MS Shell Dlg 2" stroke="#000000" stroke-linecap="square"/>
  <g font-style="normal" stroke-linejoin="bevel" transform="matrix(11.8081,0,0,11.8081,-220.508,-80.6334)" font-weight="400" stroke-opacity="1" stroke-width="1" font-size="34.375" fill="none" font-family="MS Shell Dlg 2" stroke="#000000" stroke-linecap="square"/>
  <g font-style="normal" stroke-linejoin="bevel" transform="matrix(11.8081,0,0,11.8081,-220.508,-80.6334)" font-weight="400" stroke-opacity="1" stroke-width="1" font-size="34.375" fill="none" font-family="MS Shell Dlg 2" stroke="#000000" stroke-linecap="square"/>
  <g font-style="normal" stroke-linejoin="bevel" transform="matrix(11.8081,0,0,11.8081,-220.508,-80.6334)" font-weight="400" stroke-opacity="1" stroke-width="1" font-size="34.375" fill="none" font-family="MS Shell Dlg 2" stroke="#000000" stroke-linecap="square"/>
  <g font-style="normal" stroke-linejoin="bevel" transform="matrix(1,0,0,1,0,0)" font-weight="400" stroke-opacity="1" stroke-width="1" font-size="34.375" fill="none" font-family="MS Shell Dlg 2" stroke="#000000" stroke-linecap="square"/>
 </g>
 <metadata>
  <rdf:RDF xmlns:rdf="http://www.w3.org/1999/02/22-rdf-syntax-ns#" xmlns:dc="http://purl.org/dc/elements/1.1/" xmlns:rdfs="http://www.w3.org/2000/01/rdf-schema#">
   <rdf:Description dc:format="image/svg+xml" dc:title="" dc:description="" dc:date="2025-01-31T21:40:57" dc:identifier="">
    <dc:creator>
     <rdf:Bag>
      <rdf:li>Joven</rdf:li>
     </rdf:Bag>
    </dc:creator>
    <dc:publisher>
     <rdf:Bag>
      <rdf:li>QGIS 3.34.15-Prizren</rdf:li>
     </rdf:Bag>
    </dc:publisher>
    <dc:subject>
     <rdf:Bag/>
    </dc:subject>
   </rdf:Description>
   <cc:Work rdf:about="">
    <dc:format>image/svg+xml</dc:format>
    <dc:title></dc:title>
    <dc:date>2025-01-31T21:40:57</dc:date>
    <dc:identifier></dc:identifier>
    <dc:description></dc:description>
    <dc:creator>
     <cc:Agent>
      <dc:title>Joven</dc:title>
     </cc:Agent>
    </dc:creator>
    <dc:publisher>
     <cc:Agent>
      <dc:title>QGIS 3.34.15-Prizren</dc:title>
     </cc:Agent>
    </dc:publisher>
   </cc:Work>
  </rdf:RDF>
 </metadata>
</svg>
